<?xml version="1.0" encoding="utf-8" standalone="no"?>
<!DOCTYPE svg PUBLIC "-//W3C//DTD SVG 1.1//EN"
  "http://www.w3.org/Graphics/SVG/1.1/DTD/svg11.dtd">
<!-- Created with matplotlib (https://matplotlib.org/) -->
<svg height="345.6pt" version="1.1" viewBox="0 0 460.8 345.6" width="460.8pt" xmlns="http://www.w3.org/2000/svg" xmlns:xlink="http://www.w3.org/1999/xlink">
 <defs>
  <style type="text/css">
*{stroke-linecap:butt;stroke-linejoin:round;}
  </style>
 </defs>
 <g id="figure_1">
  <g id="patch_1">
   <path d="M 0 345.6 
L 460.8 345.6 
L 460.8 0 
L 0 0 
z
" style="fill:#ffffff;"/>
  </g>
  <g id="axes_1">
   <g id="patch_2">
    <path d="M 57.6 307.584 
L 414.72 307.584 
L 414.72 41.472 
L 57.6 41.472 
z
" style="fill:#ffffff;"/>
   </g>
   <g id="matplotlib.axis_1">
    <g id="xtick_1">
     <g id="line2d_1">
      <defs>
       <path d="M 0 0 
L 0 3.5 
" id="ma05f5a1318" style="stroke:#000000;stroke-width:0.8;"/>
      </defs>
      <g>
       <use style="stroke:#000000;stroke-width:0.8;" x="97.022338" xlink:href="#ma05f5a1318" y="307.584"/>
      </g>
     </g>
     <g id="text_1">
      <!-- 0 -->
      <defs>
       <path d="M 31.78125 66.40625 
Q 24.171875 66.40625 20.328125 58.90625 
Q 16.5 51.421875 16.5 36.375 
Q 16.5 21.390625 20.328125 13.890625 
Q 24.171875 6.390625 31.78125 6.390625 
Q 39.453125 6.390625 43.28125 13.890625 
Q 47.125 21.390625 47.125 36.375 
Q 47.125 51.421875 43.28125 58.90625 
Q 39.453125 66.40625 31.78125 66.40625 
z
M 31.78125 74.21875 
Q 44.046875 74.21875 50.515625 64.515625 
Q 56.984375 54.828125 56.984375 36.375 
Q 56.984375 17.96875 50.515625 8.265625 
Q 44.046875 -1.421875 31.78125 -1.421875 
Q 19.53125 -1.421875 13.0625 8.265625 
Q 6.59375 17.96875 6.59375 36.375 
Q 6.59375 54.828125 13.0625 64.515625 
Q 19.53125 74.21875 31.78125 74.21875 
z
" id="DejaVuSans-48"/>
      </defs>
      <g transform="translate(93.841088 322.182437)scale(0.1 -0.1)">
       <use xlink:href="#DejaVuSans-48"/>
      </g>
     </g>
    </g>
    <g id="xtick_2">
     <g id="line2d_2">
      <g>
       <use style="stroke:#000000;stroke-width:0.8;" x="143.401558" xlink:href="#ma05f5a1318" y="307.584"/>
      </g>
     </g>
     <g id="text_2">
      <!-- 1 -->
      <defs>
       <path d="M 12.40625 8.296875 
L 28.515625 8.296875 
L 28.515625 63.921875 
L 10.984375 60.40625 
L 10.984375 69.390625 
L 28.421875 72.90625 
L 38.28125 72.90625 
L 38.28125 8.296875 
L 54.390625 8.296875 
L 54.390625 0 
L 12.40625 0 
z
" id="DejaVuSans-49"/>
      </defs>
      <g transform="translate(140.220308 322.182437)scale(0.1 -0.1)">
       <use xlink:href="#DejaVuSans-49"/>
      </g>
     </g>
    </g>
    <g id="xtick_3">
     <g id="line2d_3">
      <g>
       <use style="stroke:#000000;stroke-width:0.8;" x="189.780779" xlink:href="#ma05f5a1318" y="307.584"/>
      </g>
     </g>
     <g id="text_3">
      <!-- 2 -->
      <defs>
       <path d="M 19.1875 8.296875 
L 53.609375 8.296875 
L 53.609375 0 
L 7.328125 0 
L 7.328125 8.296875 
Q 12.9375 14.109375 22.625 23.890625 
Q 32.328125 33.6875 34.8125 36.53125 
Q 39.546875 41.84375 41.421875 45.53125 
Q 43.3125 49.21875 43.3125 52.78125 
Q 43.3125 58.59375 39.234375 62.25 
Q 35.15625 65.921875 28.609375 65.921875 
Q 23.96875 65.921875 18.8125 64.3125 
Q 13.671875 62.703125 7.8125 59.421875 
L 7.8125 69.390625 
Q 13.765625 71.78125 18.9375 73 
Q 24.125 74.21875 28.421875 74.21875 
Q 39.75 74.21875 46.484375 68.546875 
Q 53.21875 62.890625 53.21875 53.421875 
Q 53.21875 48.921875 51.53125 44.890625 
Q 49.859375 40.875 45.40625 35.40625 
Q 44.1875 33.984375 37.640625 27.21875 
Q 31.109375 20.453125 19.1875 8.296875 
z
" id="DejaVuSans-50"/>
      </defs>
      <g transform="translate(186.599529 322.182437)scale(0.1 -0.1)">
       <use xlink:href="#DejaVuSans-50"/>
      </g>
     </g>
    </g>
    <g id="xtick_4">
     <g id="line2d_4">
      <g>
       <use style="stroke:#000000;stroke-width:0.8;" x="236.16" xlink:href="#ma05f5a1318" y="307.584"/>
      </g>
     </g>
     <g id="text_4">
      <!-- 3 -->
      <defs>
       <path d="M 40.578125 39.3125 
Q 47.65625 37.796875 51.625 33 
Q 55.609375 28.21875 55.609375 21.1875 
Q 55.609375 10.40625 48.1875 4.484375 
Q 40.765625 -1.421875 27.09375 -1.421875 
Q 22.515625 -1.421875 17.65625 -0.515625 
Q 12.796875 0.390625 7.625 2.203125 
L 7.625 11.71875 
Q 11.71875 9.328125 16.59375 8.109375 
Q 21.484375 6.890625 26.8125 6.890625 
Q 36.078125 6.890625 40.9375 10.546875 
Q 45.796875 14.203125 45.796875 21.1875 
Q 45.796875 27.640625 41.28125 31.265625 
Q 36.765625 34.90625 28.71875 34.90625 
L 20.21875 34.90625 
L 20.21875 43.015625 
L 29.109375 43.015625 
Q 36.375 43.015625 40.234375 45.921875 
Q 44.09375 48.828125 44.09375 54.296875 
Q 44.09375 59.90625 40.109375 62.90625 
Q 36.140625 65.921875 28.71875 65.921875 
Q 24.65625 65.921875 20.015625 65.03125 
Q 15.375 64.15625 9.8125 62.3125 
L 9.8125 71.09375 
Q 15.4375 72.65625 20.34375 73.4375 
Q 25.25 74.21875 29.59375 74.21875 
Q 40.828125 74.21875 47.359375 69.109375 
Q 53.90625 64.015625 53.90625 55.328125 
Q 53.90625 49.265625 50.4375 45.09375 
Q 46.96875 40.921875 40.578125 39.3125 
z
" id="DejaVuSans-51"/>
      </defs>
      <g transform="translate(232.97875 322.182437)scale(0.1 -0.1)">
       <use xlink:href="#DejaVuSans-51"/>
      </g>
     </g>
    </g>
    <g id="xtick_5">
     <g id="line2d_5">
      <g>
       <use style="stroke:#000000;stroke-width:0.8;" x="282.539221" xlink:href="#ma05f5a1318" y="307.584"/>
      </g>
     </g>
     <g id="text_5">
      <!-- 4 -->
      <defs>
       <path d="M 37.796875 64.3125 
L 12.890625 25.390625 
L 37.796875 25.390625 
z
M 35.203125 72.90625 
L 47.609375 72.90625 
L 47.609375 25.390625 
L 58.015625 25.390625 
L 58.015625 17.1875 
L 47.609375 17.1875 
L 47.609375 0 
L 37.796875 0 
L 37.796875 17.1875 
L 4.890625 17.1875 
L 4.890625 26.703125 
z
" id="DejaVuSans-52"/>
      </defs>
      <g transform="translate(279.357971 322.182437)scale(0.1 -0.1)">
       <use xlink:href="#DejaVuSans-52"/>
      </g>
     </g>
    </g>
    <g id="xtick_6">
     <g id="line2d_6">
      <g>
       <use style="stroke:#000000;stroke-width:0.8;" x="328.918442" xlink:href="#ma05f5a1318" y="307.584"/>
      </g>
     </g>
     <g id="text_6">
      <!-- 5 -->
      <defs>
       <path d="M 10.796875 72.90625 
L 49.515625 72.90625 
L 49.515625 64.59375 
L 19.828125 64.59375 
L 19.828125 46.734375 
Q 21.96875 47.46875 24.109375 47.828125 
Q 26.265625 48.1875 28.421875 48.1875 
Q 40.625 48.1875 47.75 41.5 
Q 54.890625 34.8125 54.890625 23.390625 
Q 54.890625 11.625 47.5625 5.09375 
Q 40.234375 -1.421875 26.90625 -1.421875 
Q 22.3125 -1.421875 17.546875 -0.640625 
Q 12.796875 0.140625 7.71875 1.703125 
L 7.71875 11.625 
Q 12.109375 9.234375 16.796875 8.0625 
Q 21.484375 6.890625 26.703125 6.890625 
Q 35.15625 6.890625 40.078125 11.328125 
Q 45.015625 15.765625 45.015625 23.390625 
Q 45.015625 31 40.078125 35.4375 
Q 35.15625 39.890625 26.703125 39.890625 
Q 22.75 39.890625 18.8125 39.015625 
Q 14.890625 38.140625 10.796875 36.28125 
z
" id="DejaVuSans-53"/>
      </defs>
      <g transform="translate(325.737192 322.182437)scale(0.1 -0.1)">
       <use xlink:href="#DejaVuSans-53"/>
      </g>
     </g>
    </g>
    <g id="xtick_7">
     <g id="line2d_7">
      <g>
       <use style="stroke:#000000;stroke-width:0.8;" x="375.297662" xlink:href="#ma05f5a1318" y="307.584"/>
      </g>
     </g>
     <g id="text_7">
      <!-- 6 -->
      <defs>
       <path d="M 33.015625 40.375 
Q 26.375 40.375 22.484375 35.828125 
Q 18.609375 31.296875 18.609375 23.390625 
Q 18.609375 15.53125 22.484375 10.953125 
Q 26.375 6.390625 33.015625 6.390625 
Q 39.65625 6.390625 43.53125 10.953125 
Q 47.40625 15.53125 47.40625 23.390625 
Q 47.40625 31.296875 43.53125 35.828125 
Q 39.65625 40.375 33.015625 40.375 
z
M 52.59375 71.296875 
L 52.59375 62.3125 
Q 48.875 64.0625 45.09375 64.984375 
Q 41.3125 65.921875 37.59375 65.921875 
Q 27.828125 65.921875 22.671875 59.328125 
Q 17.53125 52.734375 16.796875 39.40625 
Q 19.671875 43.65625 24.015625 45.921875 
Q 28.375 48.1875 33.59375 48.1875 
Q 44.578125 48.1875 50.953125 41.515625 
Q 57.328125 34.859375 57.328125 23.390625 
Q 57.328125 12.15625 50.6875 5.359375 
Q 44.046875 -1.421875 33.015625 -1.421875 
Q 20.359375 -1.421875 13.671875 8.265625 
Q 6.984375 17.96875 6.984375 36.375 
Q 6.984375 53.65625 15.1875 63.9375 
Q 23.390625 74.21875 37.203125 74.21875 
Q 40.921875 74.21875 44.703125 73.484375 
Q 48.484375 72.75 52.59375 71.296875 
z
" id="DejaVuSans-54"/>
      </defs>
      <g transform="translate(372.116412 322.182437)scale(0.1 -0.1)">
       <use xlink:href="#DejaVuSans-54"/>
      </g>
     </g>
    </g>
    <g id="text_8">
     <!-- $z$ -->
     <defs>
      <path d="M 11.625 54.6875 
L 54.296875 54.6875 
L 52.6875 46.484375 
L 11.53125 7.171875 
L 45.515625 7.171875 
L 44.09375 0 
L -0.296875 0 
L 1.3125 8.203125 
L 42.484375 47.515625 
L 10.203125 47.515625 
z
" id="DejaVuSans-Oblique-122"/>
     </defs>
     <g transform="translate(233.51 335.860562)scale(0.1 -0.1)">
      <use transform="translate(0 0.3125)" xlink:href="#DejaVuSans-Oblique-122"/>
     </g>
    </g>
   </g>
   <g id="matplotlib.axis_2">
    <g id="ytick_1">
     <g id="line2d_8">
      <defs>
       <path d="M 0 0 
L -3.5 0 
" id="m7e1b2eb3a7" style="stroke:#000000;stroke-width:0.8;"/>
      </defs>
      <g>
       <use style="stroke:#000000;stroke-width:0.8;" x="57.6" xlink:href="#m7e1b2eb3a7" y="283.624807"/>
      </g>
     </g>
     <g id="text_9">
      <!-- 100 -->
      <g transform="translate(31.5125 287.424026)scale(0.1 -0.1)">
       <use xlink:href="#DejaVuSans-49"/>
       <use x="63.623047" xlink:href="#DejaVuSans-48"/>
       <use x="127.246094" xlink:href="#DejaVuSans-48"/>
      </g>
     </g>
    </g>
    <g id="ytick_2">
     <g id="line2d_9">
      <g>
       <use style="stroke:#000000;stroke-width:0.8;" x="57.6" xlink:href="#m7e1b2eb3a7" y="251.827835"/>
      </g>
     </g>
     <g id="text_10">
      <!-- 200 -->
      <g transform="translate(31.5125 255.627054)scale(0.1 -0.1)">
       <use xlink:href="#DejaVuSans-50"/>
       <use x="63.623047" xlink:href="#DejaVuSans-48"/>
       <use x="127.246094" xlink:href="#DejaVuSans-48"/>
      </g>
     </g>
    </g>
    <g id="ytick_3">
     <g id="line2d_10">
      <g>
       <use style="stroke:#000000;stroke-width:0.8;" x="57.6" xlink:href="#m7e1b2eb3a7" y="220.030864"/>
      </g>
     </g>
     <g id="text_11">
      <!-- 300 -->
      <g transform="translate(31.5125 223.830082)scale(0.1 -0.1)">
       <use xlink:href="#DejaVuSans-51"/>
       <use x="63.623047" xlink:href="#DejaVuSans-48"/>
       <use x="127.246094" xlink:href="#DejaVuSans-48"/>
      </g>
     </g>
    </g>
    <g id="ytick_4">
     <g id="line2d_11">
      <g>
       <use style="stroke:#000000;stroke-width:0.8;" x="57.6" xlink:href="#m7e1b2eb3a7" y="188.233892"/>
      </g>
     </g>
     <g id="text_12">
      <!-- 400 -->
      <g transform="translate(31.5125 192.033111)scale(0.1 -0.1)">
       <use xlink:href="#DejaVuSans-52"/>
       <use x="63.623047" xlink:href="#DejaVuSans-48"/>
       <use x="127.246094" xlink:href="#DejaVuSans-48"/>
      </g>
     </g>
    </g>
    <g id="ytick_5">
     <g id="line2d_12">
      <g>
       <use style="stroke:#000000;stroke-width:0.8;" x="57.6" xlink:href="#m7e1b2eb3a7" y="156.43692"/>
      </g>
     </g>
     <g id="text_13">
      <!-- 500 -->
      <g transform="translate(31.5125 160.236139)scale(0.1 -0.1)">
       <use xlink:href="#DejaVuSans-53"/>
       <use x="63.623047" xlink:href="#DejaVuSans-48"/>
       <use x="127.246094" xlink:href="#DejaVuSans-48"/>
      </g>
     </g>
    </g>
    <g id="ytick_6">
     <g id="line2d_13">
      <g>
       <use style="stroke:#000000;stroke-width:0.8;" x="57.6" xlink:href="#m7e1b2eb3a7" y="124.639949"/>
      </g>
     </g>
     <g id="text_14">
      <!-- 600 -->
      <g transform="translate(31.5125 128.439167)scale(0.1 -0.1)">
       <use xlink:href="#DejaVuSans-54"/>
       <use x="63.623047" xlink:href="#DejaVuSans-48"/>
       <use x="127.246094" xlink:href="#DejaVuSans-48"/>
      </g>
     </g>
    </g>
    <g id="ytick_7">
     <g id="line2d_14">
      <g>
       <use style="stroke:#000000;stroke-width:0.8;" x="57.6" xlink:href="#m7e1b2eb3a7" y="92.842977"/>
      </g>
     </g>
     <g id="text_15">
      <!-- 700 -->
      <defs>
       <path d="M 8.203125 72.90625 
L 55.078125 72.90625 
L 55.078125 68.703125 
L 28.609375 0 
L 18.3125 0 
L 43.21875 64.59375 
L 8.203125 64.59375 
z
" id="DejaVuSans-55"/>
      </defs>
      <g transform="translate(31.5125 96.642196)scale(0.1 -0.1)">
       <use xlink:href="#DejaVuSans-55"/>
       <use x="63.623047" xlink:href="#DejaVuSans-48"/>
       <use x="127.246094" xlink:href="#DejaVuSans-48"/>
      </g>
     </g>
    </g>
    <g id="ytick_8">
     <g id="line2d_15">
      <g>
       <use style="stroke:#000000;stroke-width:0.8;" x="57.6" xlink:href="#m7e1b2eb3a7" y="61.046005"/>
      </g>
     </g>
     <g id="text_16">
      <!-- 800 -->
      <defs>
       <path d="M 31.78125 34.625 
Q 24.75 34.625 20.71875 30.859375 
Q 16.703125 27.09375 16.703125 20.515625 
Q 16.703125 13.921875 20.71875 10.15625 
Q 24.75 6.390625 31.78125 6.390625 
Q 38.8125 6.390625 42.859375 10.171875 
Q 46.921875 13.96875 46.921875 20.515625 
Q 46.921875 27.09375 42.890625 30.859375 
Q 38.875 34.625 31.78125 34.625 
z
M 21.921875 38.8125 
Q 15.578125 40.375 12.03125 44.71875 
Q 8.5 49.078125 8.5 55.328125 
Q 8.5 64.0625 14.71875 69.140625 
Q 20.953125 74.21875 31.78125 74.21875 
Q 42.671875 74.21875 48.875 69.140625 
Q 55.078125 64.0625 55.078125 55.328125 
Q 55.078125 49.078125 51.53125 44.71875 
Q 48 40.375 41.703125 38.8125 
Q 48.828125 37.15625 52.796875 32.3125 
Q 56.78125 27.484375 56.78125 20.515625 
Q 56.78125 9.90625 50.3125 4.234375 
Q 43.84375 -1.421875 31.78125 -1.421875 
Q 19.734375 -1.421875 13.25 4.234375 
Q 6.78125 9.90625 6.78125 20.515625 
Q 6.78125 27.484375 10.78125 32.3125 
Q 14.796875 37.15625 21.921875 38.8125 
z
M 18.3125 54.390625 
Q 18.3125 48.734375 21.84375 45.5625 
Q 25.390625 42.390625 31.78125 42.390625 
Q 38.140625 42.390625 41.71875 45.5625 
Q 45.3125 48.734375 45.3125 54.390625 
Q 45.3125 60.0625 41.71875 63.234375 
Q 38.140625 66.40625 31.78125 66.40625 
Q 25.390625 66.40625 21.84375 63.234375 
Q 18.3125 60.0625 18.3125 54.390625 
z
" id="DejaVuSans-56"/>
      </defs>
      <g transform="translate(31.5125 64.845224)scale(0.1 -0.1)">
       <use xlink:href="#DejaVuSans-56"/>
       <use x="63.623047" xlink:href="#DejaVuSans-48"/>
       <use x="127.246094" xlink:href="#DejaVuSans-48"/>
      </g>
     </g>
    </g>
    <g id="text_17">
     <!-- $H(z)$ -->
     <defs>
      <path d="M 16.890625 72.90625 
L 26.8125 72.90625 
L 21 43.015625 
L 56.78125 43.015625 
L 62.59375 72.90625 
L 72.515625 72.90625 
L 58.296875 0 
L 48.390625 0 
L 55.171875 34.71875 
L 19.390625 34.71875 
L 12.59375 0 
L 2.6875 0 
z
" id="DejaVuSans-Oblique-72"/>
      <path d="M 31 75.875 
Q 24.46875 64.65625 21.28125 53.65625 
Q 18.109375 42.671875 18.109375 31.390625 
Q 18.109375 20.125 21.3125 9.0625 
Q 24.515625 -2 31 -13.1875 
L 23.1875 -13.1875 
Q 15.875 -1.703125 12.234375 9.375 
Q 8.59375 20.453125 8.59375 31.390625 
Q 8.59375 42.28125 12.203125 53.3125 
Q 15.828125 64.359375 23.1875 75.875 
z
" id="DejaVuSans-40"/>
      <path d="M 8.015625 75.875 
L 15.828125 75.875 
Q 23.140625 64.359375 26.78125 53.3125 
Q 30.421875 42.28125 30.421875 31.390625 
Q 30.421875 20.453125 26.78125 9.375 
Q 23.140625 -1.703125 15.828125 -13.1875 
L 8.015625 -13.1875 
Q 14.5 -2 17.703125 9.0625 
Q 20.90625 20.125 20.90625 31.390625 
Q 20.90625 42.671875 17.703125 53.65625 
Q 14.5 64.65625 8.015625 75.875 
z
" id="DejaVuSans-41"/>
     </defs>
     <g transform="translate(25.432812 184.828)rotate(-90)scale(0.1 -0.1)">
      <use transform="translate(0 0.125)" xlink:href="#DejaVuSans-Oblique-72"/>
      <use transform="translate(75.195312 0.125)" xlink:href="#DejaVuSans-40"/>
      <use transform="translate(114.208984 0.125)" xlink:href="#DejaVuSans-Oblique-122"/>
      <use transform="translate(166.699219 0.125)" xlink:href="#DejaVuSans-41"/>
     </g>
    </g>
   </g>
   <g id="line2d_16">
    <path clip-path="url(#pc1e651dc9b)" d="M 73.832727 295.488 
L 77.112066 295.24267 
L 80.391405 294.932648 
L 83.670744 294.552604 
L 86.950083 294.098242 
L 90.229421 293.566354 
L 93.50876 292.954817 
L 96.788099 292.262537 
L 100.067438 291.48936 
L 103.346777 290.63594 
L 106.626116 289.703601 
L 109.905455 288.694187 
L 113.184793 287.609928 
L 116.464132 286.45331 
L 119.743471 285.226971 
L 123.02281 283.933613 
L 126.302149 282.575935 
L 129.581488 281.15658 
L 132.860826 279.678098 
L 136.140165 278.142927 
L 139.419504 276.553374 
L 142.698843 274.911608 
L 145.978182 273.219662 
L 149.257521 271.479431 
L 152.53686 269.692679 
L 155.816198 267.861045 
L 159.095537 265.98605 
L 162.374876 264.069106 
L 165.654215 262.111522 
L 168.933554 260.114515 
L 172.212893 258.079214 
L 175.492231 256.006669 
L 178.77157 253.897859 
L 182.050909 251.753693 
L 185.330248 249.575024 
L 188.609587 247.362645 
L 191.888926 245.117302 
L 195.168264 242.839691 
L 198.447603 240.530467 
L 201.726942 238.190248 
L 205.006281 235.819613 
L 208.28562 233.41911 
L 211.564959 230.989255 
L 214.844298 228.53054 
L 218.123636 226.043427 
L 221.402975 223.528357 
L 224.682314 220.985749 
L 227.961653 218.416001 
L 231.240992 215.819492 
L 234.520331 213.196586 
L 237.799669 210.547627 
L 241.079008 207.872948 
L 244.358347 205.172865 
L 247.637686 202.447683 
L 250.917025 199.697693 
L 254.196364 196.923176 
L 257.475702 194.124403 
L 260.755041 191.301632 
L 264.03438 188.455115 
L 267.313719 185.585092 
L 270.593058 182.691798 
L 273.872397 179.775457 
L 277.151736 176.836288 
L 280.431074 173.874502 
L 283.710413 170.890303 
L 286.989752 167.88389 
L 290.269091 164.855454 
L 293.54843 161.805182 
L 296.827769 158.733256 
L 300.107107 155.639851 
L 303.386446 152.52514 
L 306.665785 149.389288 
L 309.945124 146.232458 
L 313.224463 143.054808 
L 316.503802 139.856493 
L 319.78314 136.637662 
L 323.062479 133.398462 
L 326.341818 130.139037 
L 329.621157 126.859526 
L 332.900496 123.560065 
L 336.179835 120.240789 
L 339.459174 116.901828 
L 342.738512 113.543308 
L 346.017851 110.165356 
L 349.29719 106.768094 
L 352.576529 103.351641 
L 355.855868 99.916114 
L 359.135207 96.461629 
L 362.414545 92.988298 
L 365.693884 89.496232 
L 368.973223 85.985538 
L 372.252562 82.456324 
L 375.531901 78.908694 
L 378.81124 75.342749 
L 382.090579 71.758592 
L 385.369917 68.156319 
L 388.649256 64.536029 
L 391.928595 60.897817 
L 395.207934 57.241777 
L 398.487273 53.568 
" style="fill:none;stroke:#00bfbf;stroke-linecap:square;stroke-opacity:0.8;stroke-width:1.5;"/>
   </g>
   <g id="line2d_17">
    <path clip-path="url(#pc1e651dc9b)" d="M 73.832727 275.554221 
L 77.112066 280.063694 
L 80.391405 283.478095 
L 83.670744 286.11613 
L 86.950083 288.182681 
L 90.229421 289.816015 
L 93.50876 291.113262 
L 96.788099 292.144977 
L 100.067438 292.963869 
L 103.346777 293.610241 
L 106.626116 294.115506 
L 109.905455 294.504533 
L 113.184793 294.79726 
L 116.464132 295.009833 
L 119.743471 295.155433 
L 123.02281 295.244896 
L 126.302149 295.287175 
L 129.581488 295.289703 
L 132.860826 295.258677 
L 136.140165 295.199278 
L 139.419504 295.115857 
L 142.698843 295.012075 
L 145.978182 294.891019 
L 149.257521 294.755307 
L 152.53686 294.607154 
L 155.816198 294.448449 
L 159.095537 294.280798 
L 162.374876 294.105575 
L 165.654215 293.923956 
L 168.933554 293.736951 
L 172.212893 293.545425 
L 175.492231 293.350125 
L 178.77157 293.151694 
L 182.050909 292.95069 
L 185.330248 292.747592 
L 188.609587 292.542817 
L 191.888926 292.336727 
L 195.168264 292.129634 
L 198.447603 291.921811 
L 201.726942 291.713495 
L 205.006281 291.504891 
L 208.28562 291.296179 
L 211.564959 291.087514 
L 214.844298 290.879032 
L 218.123636 290.670851 
L 221.402975 290.463072 
L 224.682314 290.255784 
L 227.961653 290.049065 
L 231.240992 289.842981 
L 234.520331 289.63759 
L 237.799669 289.43294 
L 241.079008 289.229075 
L 244.358347 289.026029 
L 247.637686 288.823835 
L 250.917025 288.622517 
L 254.196364 288.422097 
L 257.475702 288.222594 
L 260.755041 288.024021 
L 264.03438 287.82639 
L 267.313719 287.62971 
L 270.593058 287.433987 
L 273.872397 287.239227 
L 277.151736 287.045432 
L 280.431074 286.852604 
L 283.710413 286.660741 
L 286.989752 286.469844 
L 290.269091 286.279909 
L 293.54843 286.090934 
L 296.827769 285.902913 
L 300.107107 285.715843 
L 303.386446 285.529717 
L 306.665785 285.34453 
L 309.945124 285.160274 
L 313.224463 284.976944 
L 316.503802 284.794531 
L 319.78314 284.613027 
L 323.062479 284.432426 
L 326.341818 284.252719 
L 329.621157 284.073898 
L 332.900496 283.895954 
L 336.179835 283.718878 
L 339.459174 283.542662 
L 342.738512 283.367298 
L 346.017851 283.192777 
L 349.29719 283.019089 
L 352.576529 282.846226 
L 355.855868 282.67418 
L 359.135207 282.502941 
L 362.414545 282.332501 
L 365.693884 282.162851 
L 368.973223 281.993982 
L 372.252562 281.825886 
L 375.531901 281.658555 
L 378.81124 281.49198 
L 382.090579 281.326153 
L 385.369917 281.161064 
L 388.649256 280.996707 
L 391.928595 280.833073 
L 395.207934 280.670154 
L 398.487273 280.507942 
" style="fill:none;stroke:#bf00bf;stroke-linecap:square;stroke-opacity:0.8;stroke-width:1.5;"/>
   </g>
   <g id="patch_3">
    <path d="M 57.6 307.584 
L 57.6 41.472 
" style="fill:none;stroke:#000000;stroke-linecap:square;stroke-linejoin:miter;stroke-width:0.8;"/>
   </g>
   <g id="patch_4">
    <path d="M 414.72 307.584 
L 414.72 41.472 
" style="fill:none;stroke:#000000;stroke-linecap:square;stroke-linejoin:miter;stroke-width:0.8;"/>
   </g>
   <g id="patch_5">
    <path d="M 57.6 307.584 
L 414.72 307.584 
" style="fill:none;stroke:#000000;stroke-linecap:square;stroke-linejoin:miter;stroke-width:0.8;"/>
   </g>
   <g id="patch_6">
    <path d="M 57.6 41.472 
L 414.72 41.472 
" style="fill:none;stroke:#000000;stroke-linecap:square;stroke-linejoin:miter;stroke-width:0.8;"/>
   </g>
  </g>
  <g id="axes_2">
   <g id="matplotlib.axis_3">
    <g id="ytick_9">
     <g id="line2d_18">
      <defs>
       <path d="M 0 0 
L 3.5 0 
" id="m89b3b6252a" style="stroke:#000000;stroke-width:0.8;"/>
      </defs>
      <g>
       <use style="stroke:#000000;stroke-width:0.8;" x="414.72" xlink:href="#m89b3b6252a" y="282.485109"/>
      </g>
     </g>
     <g id="text_18">
      <!-- 0.0 -->
      <defs>
       <path d="M 10.6875 12.40625 
L 21 12.40625 
L 21 0 
L 10.6875 0 
z
" id="DejaVuSans-46"/>
      </defs>
      <g transform="translate(421.72 286.284328)scale(0.1 -0.1)">
       <use xlink:href="#DejaVuSans-48"/>
       <use x="63.623047" xlink:href="#DejaVuSans-46"/>
       <use x="95.410156" xlink:href="#DejaVuSans-48"/>
      </g>
     </g>
    </g>
    <g id="ytick_10">
     <g id="line2d_19">
      <g>
       <use style="stroke:#000000;stroke-width:0.8;" x="414.72" xlink:href="#m89b3b6252a" y="236.701687"/>
      </g>
     </g>
     <g id="text_19">
      <!-- 0.2 -->
      <g transform="translate(421.72 240.500906)scale(0.1 -0.1)">
       <use xlink:href="#DejaVuSans-48"/>
       <use x="63.623047" xlink:href="#DejaVuSans-46"/>
       <use x="95.410156" xlink:href="#DejaVuSans-50"/>
      </g>
     </g>
    </g>
    <g id="ytick_11">
     <g id="line2d_20">
      <g>
       <use style="stroke:#000000;stroke-width:0.8;" x="414.72" xlink:href="#m89b3b6252a" y="190.918265"/>
      </g>
     </g>
     <g id="text_20">
      <!-- 0.4 -->
      <g transform="translate(421.72 194.717484)scale(0.1 -0.1)">
       <use xlink:href="#DejaVuSans-48"/>
       <use x="63.623047" xlink:href="#DejaVuSans-46"/>
       <use x="95.410156" xlink:href="#DejaVuSans-52"/>
      </g>
     </g>
    </g>
    <g id="ytick_12">
     <g id="line2d_21">
      <g>
       <use style="stroke:#000000;stroke-width:0.8;" x="414.72" xlink:href="#m89b3b6252a" y="145.134844"/>
      </g>
     </g>
     <g id="text_21">
      <!-- 0.6 -->
      <g transform="translate(421.72 148.934062)scale(0.1 -0.1)">
       <use xlink:href="#DejaVuSans-48"/>
       <use x="63.623047" xlink:href="#DejaVuSans-46"/>
       <use x="95.410156" xlink:href="#DejaVuSans-54"/>
      </g>
     </g>
    </g>
    <g id="ytick_13">
     <g id="line2d_22">
      <g>
       <use style="stroke:#000000;stroke-width:0.8;" x="414.72" xlink:href="#m89b3b6252a" y="99.351422"/>
      </g>
     </g>
     <g id="text_22">
      <!-- 0.8 -->
      <g transform="translate(421.72 103.150641)scale(0.1 -0.1)">
       <use xlink:href="#DejaVuSans-48"/>
       <use x="63.623047" xlink:href="#DejaVuSans-46"/>
       <use x="95.410156" xlink:href="#DejaVuSans-56"/>
      </g>
     </g>
    </g>
    <g id="ytick_14">
     <g id="line2d_23">
      <g>
       <use style="stroke:#000000;stroke-width:0.8;" x="414.72" xlink:href="#m89b3b6252a" y="53.568"/>
      </g>
     </g>
     <g id="text_23">
      <!-- 1.0 -->
      <g transform="translate(421.72 57.367219)scale(0.1 -0.1)">
       <use xlink:href="#DejaVuSans-49"/>
       <use x="63.623047" xlink:href="#DejaVuSans-46"/>
       <use x="95.410156" xlink:href="#DejaVuSans-48"/>
      </g>
     </g>
    </g>
    <g id="text_24">
     <!-- $\Omega(z)$ -->
     <defs>
      <path d="M 72.609375 8.6875 
L 72.609375 0 
L 43.3125 0 
L 43.3125 8.6875 
Q 51.953125 13.421875 56.78125 21.53125 
Q 61.625 29.640625 61.625 39.5 
Q 61.625 51.21875 55.171875 58.296875 
Q 48.734375 65.375 38.1875 65.375 
Q 27.640625 65.375 21.171875 58.265625 
Q 14.703125 51.171875 14.703125 39.5 
Q 14.703125 29.640625 19.53125 21.53125 
Q 24.421875 13.421875 33.109375 8.6875 
L 33.109375 0 
L 3.8125 0 
L 3.8125 8.6875 
L 19.390625 8.6875 
Q 11.671875 15.484375 8.109375 22.75 
Q 4.59375 30.03125 4.59375 39.015625 
Q 4.59375 54.546875 13.96875 64.15625 
Q 23.296875 73.78125 38.1875 73.78125 
Q 52.984375 73.78125 62.40625 64.15625 
Q 71.78125 54.59375 71.78125 39.5 
Q 71.78125 30.03125 68.3125 22.796875 
Q 64.84375 15.578125 56.984375 8.6875 
z
" id="DejaVuSans-937"/>
     </defs>
     <g transform="translate(449.221563 184.878)rotate(-90)scale(0.1 -0.1)">
      <use transform="translate(0 0.125)" xlink:href="#DejaVuSans-937"/>
      <use transform="translate(76.416016 0.125)" xlink:href="#DejaVuSans-40"/>
      <use transform="translate(115.429688 0.125)" xlink:href="#DejaVuSans-Oblique-122"/>
      <use transform="translate(167.919922 0.125)" xlink:href="#DejaVuSans-41"/>
     </g>
    </g>
   </g>
   <g id="line2d_24">
    <path clip-path="url(#pc1e651dc9b)" d="M 73.832727 53.568 
L 77.112066 53.568 
L 80.391405 53.568 
L 83.670744 53.568 
L 86.950083 53.568 
L 90.229421 53.568 
L 93.50876 53.568 
L 96.788099 53.568 
L 100.067438 53.568 
L 103.346777 53.568 
L 106.626116 53.568 
L 109.905455 53.568 
L 113.184793 53.568 
L 116.464132 53.568 
L 119.743471 53.568 
L 123.02281 53.568 
L 126.302149 53.568 
L 129.581488 53.568 
L 132.860826 53.568 
L 136.140165 53.568 
L 139.419504 53.568 
L 142.698843 53.568 
L 145.978182 53.568 
L 149.257521 53.568 
L 152.53686 53.568 
L 155.816198 53.568 
L 159.095537 53.568 
L 162.374876 53.568 
L 165.654215 53.568 
L 168.933554 53.568 
L 172.212893 53.568 
L 175.492231 53.568 
L 178.77157 53.568 
L 182.050909 53.568 
L 185.330248 53.568 
L 188.609587 53.568 
L 191.888926 53.568 
L 195.168264 53.568 
L 198.447603 53.568 
L 201.726942 53.568 
L 205.006281 53.568 
L 208.28562 53.568 
L 211.564959 53.568 
L 214.844298 53.568 
L 218.123636 53.568 
L 221.402975 53.568 
L 224.682314 53.568 
L 227.961653 53.568 
L 231.240992 53.568 
L 234.520331 53.568 
L 237.799669 53.568 
L 241.079008 53.568 
L 244.358347 53.568 
L 247.637686 53.568 
L 250.917025 53.568 
L 254.196364 53.568 
L 257.475702 53.568 
L 260.755041 53.568 
L 264.03438 53.568 
L 267.313719 53.568 
L 270.593058 53.568 
L 273.872397 53.568 
L 277.151736 53.568 
L 280.431074 53.568 
L 283.710413 53.568 
L 286.989752 53.568 
L 290.269091 53.568 
L 293.54843 53.568 
L 296.827769 53.568 
L 300.107107 53.568 
L 303.386446 53.568 
L 306.665785 53.568 
L 309.945124 53.568 
L 313.224463 53.568 
L 316.503802 53.568 
L 319.78314 53.568 
L 323.062479 53.568 
L 326.341818 53.568 
L 329.621157 53.568 
L 332.900496 53.568 
L 336.179835 53.568 
L 339.459174 53.568 
L 342.738512 53.568 
L 346.017851 53.568 
L 349.29719 53.568 
L 352.576529 53.568 
L 355.855868 53.568 
L 359.135207 53.568 
L 362.414545 53.568 
L 365.693884 53.568 
L 368.973223 53.568 
L 372.252562 53.568 
L 375.531901 53.568 
L 378.81124 53.568 
L 382.090579 53.568 
L 385.369917 53.568 
L 388.649256 53.568 
L 391.928595 53.568 
L 395.207934 53.568 
L 398.487273 53.568 
" style="fill:none;stroke:#ff0000;stroke-dasharray:5.55,2.4;stroke-dashoffset:0;stroke-opacity:0.7;stroke-width:1.5;"/>
   </g>
   <g id="line2d_25">
    <path clip-path="url(#pc1e651dc9b)" d="M 73.832727 259.205403 
L 77.112066 252.888682 
L 80.391405 246.223526 
L 83.670744 239.401303 
L 86.950083 232.616035 
L 90.229421 226.05105 
L 93.50876 219.867016 
L 96.788099 214.193059 
L 100.067438 209.121939 
L 103.346777 204.709366 
L 106.626116 200.97682 
L 109.905455 197.916779 
L 113.184793 195.49916 
L 116.464132 193.677961 
L 119.743471 192.397334 
L 123.02281 191.596676 
L 126.302149 191.214578 
L 129.581488 191.191652 
L 132.860826 191.472396 
L 136.140165 192.006264 
L 139.419504 192.748149 
L 142.698843 193.658449 
L 145.978182 194.702855 
L 149.257521 195.851969 
L 152.53686 197.080839 
L 155.816198 198.368461 
L 159.095537 199.697285 
L 162.374876 201.052749 
L 165.654215 202.422856 
L 168.933554 203.797785 
L 172.212893 205.169558 
L 175.492231 206.53175 
L 178.77157 207.879235 
L 182.050909 209.207969 
L 185.330248 210.51481 
L 188.609587 211.797364 
L 191.888926 213.053852 
L 195.168264 214.283004 
L 198.447603 215.483965 
L 201.726942 216.656222 
L 205.006281 217.799536 
L 208.28562 218.913893 
L 211.564959 219.999457 
L 214.844298 221.056536 
L 218.123636 222.08555 
L 221.402975 223.087005 
L 224.682314 224.061476 
L 227.961653 225.009587 
L 231.240992 225.931997 
L 234.520331 226.829389 
L 237.799669 227.702463 
L 241.079008 228.551924 
L 244.358347 229.378478 
L 247.637686 230.18283 
L 250.917025 230.965675 
L 254.196364 231.727698 
L 257.475702 232.469569 
L 260.755041 233.191945 
L 264.03438 233.895467 
L 267.313719 234.580755 
L 270.593058 235.248416 
L 273.872397 235.899034 
L 277.151736 236.533176 
L 280.431074 237.15139 
L 283.710413 237.754207 
L 286.989752 238.342137 
L 290.269091 238.915673 
L 293.54843 239.475291 
L 296.827769 240.021449 
L 300.107107 240.554587 
L 303.386446 241.07513 
L 306.665785 241.583488 
L 309.945124 242.080053 
L 313.224463 242.565204 
L 316.503802 243.039307 
L 319.78314 243.50271 
L 323.062479 243.955753 
L 326.341818 244.398759 
L 329.621157 244.832041 
L 332.900496 245.255899 
L 336.179835 245.670622 
L 339.459174 246.07649 
L 342.738512 246.473771 
L 346.017851 246.862721 
L 349.29719 247.24359 
L 352.576529 247.616617 
L 355.855868 247.982033 
L 359.135207 248.340059 
L 362.414545 248.69091 
L 365.693884 249.034791 
L 368.973223 249.371902 
L 372.252562 249.702434 
L 375.531901 250.026572 
L 378.81124 250.344494 
L 382.090579 250.656372 
L 385.369917 250.962372 
L 388.649256 251.262654 
L 391.928595 251.557373 
L 395.207934 251.846679 
L 398.487273 252.130714 
" style="fill:none;stroke:#008000;stroke-dasharray:5.55,2.4;stroke-dashoffset:0;stroke-opacity:0.7;stroke-width:1.5;"/>
   </g>
   <g id="line2d_26">
    <path clip-path="url(#pc1e651dc9b)" d="M 73.832727 294.124962 
L 77.112066 295.190646 
L 80.391405 295.488 
L 83.670744 294.888023 
L 86.950083 293.315262 
L 90.229421 290.750704 
L 93.50876 287.228904 
L 96.788099 282.830018 
L 100.067438 277.668335 
L 103.346777 271.879326 
L 106.626116 265.60713 
L 109.905455 258.993906 
L 113.184793 252.171824 
L 116.464132 245.25787 
L 119.743471 238.351199 
L 123.02281 231.532503 
L 126.302149 224.864824 
L 129.581488 218.395258 
L 132.860826 212.157104 
L 136.140165 206.172144 
L 139.419504 200.452837 
L 142.698843 195.004308 
L 145.978182 189.826064 
L 149.257521 184.913442 
L 152.53686 180.258786 
L 155.816198 175.852388 
L 159.095537 171.683223 
L 162.374876 167.739512 
L 165.654215 164.009149 
L 168.933554 160.480015 
L 172.212893 157.1402 
L 175.492231 153.978164 
L 178.77157 150.982836 
L 182.050909 148.143686 
L 185.330248 145.450752 
L 188.609587 142.894663 
L 191.888926 140.466629 
L 195.168264 138.158432 
L 198.447603 135.962406 
L 201.726942 133.87141 
L 205.006281 131.8788 
L 208.28562 129.978404 
L 211.564959 128.164484 
L 214.844298 126.431715 
L 218.123636 124.775149 
L 221.402975 123.190194 
L 224.682314 121.672585 
L 227.961653 120.218358 
L 231.240992 118.82383 
L 234.520331 117.485576 
L 237.799669 116.20041 
L 241.079008 114.965366 
L 244.358347 113.777681 
L 247.637686 112.63478 
L 250.917025 111.534261 
L 254.196364 110.473882 
L 257.475702 109.451548 
L 260.755041 108.465304 
L 264.03438 107.513316 
L 267.313719 106.593871 
L 270.593058 105.705363 
L 273.872397 104.846286 
L 277.151736 104.015226 
L 280.431074 103.210858 
L 283.710413 102.431933 
L 286.989752 101.67728 
L 290.269091 100.945794 
L 293.54843 100.236437 
L 296.827769 99.548229 
L 300.107107 98.880247 
L 303.386446 98.231617 
L 306.665785 97.601518 
L 309.945124 96.989169 
L 313.224463 96.393837 
L 316.503802 95.814822 
L 319.78314 95.251467 
L 323.062479 94.703146 
L 326.341818 94.169267 
L 329.621157 93.649266 
L 332.900496 93.14261 
L 336.179835 92.648792 
L 339.459174 92.16733 
L 342.738512 91.697766 
L 346.017851 91.239662 
L 349.29719 90.792604 
L 352.576529 90.356197 
L 355.855868 89.930062 
L 359.135207 89.513841 
L 362.414545 89.10719 
L 365.693884 88.709782 
L 368.973223 88.321304 
L 372.252562 87.941456 
L 375.531901 87.569954 
L 378.81124 87.206523 
L 382.090579 86.850902 
L 385.369917 86.502841 
L 388.649256 86.162099 
L 391.928595 85.828447 
L 395.207934 85.501665 
L 398.487273 85.18154 
" style="fill:none;stroke:#bfbf00;stroke-dasharray:5.55,2.4;stroke-dashoffset:0;stroke-opacity:0.7;stroke-width:1.5;"/>
   </g>
   <g id="line2d_27">
    <path clip-path="url(#pc1e651dc9b)" d="M 73.832727 65.207853 
L 77.112066 70.45889 
L 80.391405 76.826692 
L 83.670744 84.248892 
L 86.950083 92.606922 
L 90.229421 101.736465 
L 93.50876 111.442298 
L 96.788099 121.51514 
L 100.067438 131.747944 
L 103.346777 141.949526 
L 106.626116 151.954267 
L 109.905455 161.627533 
L 113.184793 170.867234 
L 116.464132 179.602386 
L 119.743471 187.789685 
L 123.02281 195.409039 
L 126.302149 202.458816 
L 129.581488 208.951308 
L 132.860826 214.908718 
L 136.140165 220.359811 
L 139.419504 225.337232 
L 142.698843 229.875461 
L 145.978182 234.009299 
L 149.257521 237.772807 
L 152.53686 241.198593 
L 155.816198 244.317369 
L 159.095537 247.157711 
L 162.374876 249.745957 
L 165.654215 252.106213 
L 168.933554 254.260418 
L 172.212893 256.22846 
L 175.492231 258.028303 
L 178.77157 259.676146 
L 182.050909 261.186563 
L 185.330248 262.572655 
L 188.609587 263.846191 
L 191.888926 265.017737 
L 195.168264 266.096782 
L 198.447603 267.091847 
L 201.726942 268.010586 
L 205.006281 268.859881 
L 208.28562 269.645921 
L 211.564959 270.374277 
L 214.844298 271.049967 
L 218.123636 271.677519 
L 221.402975 272.261018 
L 224.682314 272.804156 
L 227.961653 273.310273 
L 231.240992 273.782391 
L 234.520331 274.223252 
L 237.799669 274.635345 
L 241.079008 275.020928 
L 244.358347 275.382059 
L 247.637686 275.720608 
L 250.917025 276.038282 
L 254.196364 276.336639 
L 257.475702 276.617101 
L 260.755041 276.880969 
L 264.03438 277.129435 
L 267.313719 277.363591 
L 270.593058 277.584439 
L 273.872397 277.792898 
L 277.151736 277.989816 
L 280.431074 278.17597 
L 283.710413 278.352078 
L 286.989752 278.518801 
L 290.269091 278.67675 
L 293.54843 278.826489 
L 296.827769 278.96854 
L 300.107107 279.103385 
L 303.386446 279.231471 
L 306.665785 279.353213 
L 309.945124 279.468996 
L 313.224463 279.579177 
L 316.503802 279.684089 
L 319.78314 279.78404 
L 323.062479 279.879319 
L 326.341818 279.970192 
L 329.621157 280.056911 
L 332.900496 280.139709 
L 336.179835 280.218803 
L 339.459174 280.294397 
L 342.738512 280.366682 
L 346.017851 280.435835 
L 349.29719 280.502024 
L 352.576529 280.565404 
L 355.855868 280.626123 
L 359.135207 280.684318 
L 362.414545 280.740118 
L 365.693884 280.793645 
L 368.973223 280.845012 
L 372.252562 280.894328 
L 375.531901 280.941692 
L 378.81124 280.987201 
L 382.090579 281.030944 
L 385.369917 281.073005 
L 388.649256 281.113465 
L 391.928595 281.152397 
L 395.207934 281.189875 
L 398.487273 281.225964 
" style="fill:none;stroke:#0000ff;stroke-dasharray:5.55,2.4;stroke-dashoffset:0;stroke-opacity:0.7;stroke-width:1.5;"/>
   </g>
   <g id="patch_7">
    <path d="M 57.6 307.584 
L 57.6 41.472 
" style="fill:none;stroke:#000000;stroke-linecap:square;stroke-linejoin:miter;stroke-width:0.8;"/>
   </g>
   <g id="patch_8">
    <path d="M 414.72 307.584 
L 414.72 41.472 
" style="fill:none;stroke:#000000;stroke-linecap:square;stroke-linejoin:miter;stroke-width:0.8;"/>
   </g>
   <g id="patch_9">
    <path d="M 57.6 307.584 
L 414.72 307.584 
" style="fill:none;stroke:#000000;stroke-linecap:square;stroke-linejoin:miter;stroke-width:0.8;"/>
   </g>
   <g id="patch_10">
    <path d="M 57.6 41.472 
L 414.72 41.472 
" style="fill:none;stroke:#000000;stroke-linecap:square;stroke-linejoin:miter;stroke-width:0.8;"/>
   </g>
   <g id="text_25">
    <!-- $H(z)$ -->
    <g style="fill:#00bfbf;opacity:0.8;" transform="translate(288.104727 174.894068)scale(0.1 -0.1)">
     <use transform="translate(0 0.125)" xlink:href="#DejaVuSans-Oblique-72"/>
     <use transform="translate(75.195312 0.125)" xlink:href="#DejaVuSans-40"/>
     <use transform="translate(114.208984 0.125)" xlink:href="#DejaVuSans-Oblique-122"/>
     <use transform="translate(166.699219 0.125)" xlink:href="#DejaVuSans-41"/>
    </g>
   </g>
   <g id="text_26">
    <!-- $H(z)\ \frac{1}{1+z}$ -->
    <defs>
     <path d="M 46 62.703125 
L 46 35.5 
L 73.1875 35.5 
L 73.1875 27.203125 
L 46 27.203125 
L 46 0 
L 37.796875 0 
L 37.796875 27.203125 
L 10.59375 27.203125 
L 10.59375 35.5 
L 37.796875 35.5 
L 37.796875 62.703125 
z
" id="DejaVuSans-43"/>
    </defs>
    <g style="fill:#bf00bf;opacity:0.8;" transform="translate(296.916779 264.17174)scale(0.1 -0.1)">
     <use transform="translate(0 0.16875)" xlink:href="#DejaVuSans-Oblique-72"/>
     <use transform="translate(75.195312 0.16875)" xlink:href="#DejaVuSans-40"/>
     <use transform="translate(114.208984 0.16875)" xlink:href="#DejaVuSans-Oblique-122"/>
     <use transform="translate(166.699219 0.16875)" xlink:href="#DejaVuSans-41"/>
     <use transform="translate(299.183269 43.965625)scale(0.7)" xlink:href="#DejaVuSans-49"/>
     <use transform="translate(238.183269 -38.31875)scale(0.7)" xlink:href="#DejaVuSans-49"/>
     <use transform="translate(296.357097 -38.31875)scale(0.7)" xlink:href="#DejaVuSans-43"/>
     <use transform="translate(368.647136 -38.31875)scale(0.7)" xlink:href="#DejaVuSans-Oblique-122"/>
     <path d="M 238.183269 18.965625 
L 238.183269 25.215625 
L 405.3903 25.215625 
L 405.3903 18.965625 
L 238.183269 18.965625 
z
"/>
    </g>
   </g>
   <g id="text_27">
    <!-- $\Omega_T(z)$ -->
    <defs>
     <path d="M 5.90625 72.90625 
L 67.578125 72.90625 
L 66.015625 64.59375 
L 39.984375 64.59375 
L 27.484375 0 
L 17.578125 0 
L 30.078125 64.59375 
L 4.296875 64.59375 
z
" id="DejaVuSans-Oblique-84"/>
    </defs>
    <g style="fill:#ff0000;opacity:0.7;" transform="translate(246.827221 67.303027)scale(0.1 -0.1)">
     <use transform="translate(0 0.125)" xlink:href="#DejaVuSans-937"/>
     <use transform="translate(77.373047 -16.28125)scale(0.7)" xlink:href="#DejaVuSans-Oblique-84"/>
     <use transform="translate(122.866211 0.125)" xlink:href="#DejaVuSans-40"/>
     <use transform="translate(161.879883 0.125)" xlink:href="#DejaVuSans-Oblique-122"/>
     <use transform="translate(214.370117 0.125)" xlink:href="#DejaVuSans-41"/>
    </g>
   </g>
   <g id="text_28">
    <!-- $\Omega_M(z)$ -->
    <defs>
     <path d="M 16.890625 72.90625 
L 31.6875 72.90625 
L 40.1875 23.78125 
L 68.40625 72.90625 
L 83.59375 72.90625 
L 69.390625 0 
L 59.8125 0 
L 72.21875 63.921875 
L 43.609375 14.015625 
L 33.984375 14.015625 
L 24.703125 64.109375 
L 12.3125 0 
L 2.6875 0 
z
" id="DejaVuSans-Oblique-77"/>
    </defs>
    <g style="fill:#008000;opacity:0.7;" transform="translate(273.727169 227.545003)scale(0.1 -0.1)">
     <use transform="translate(0 0.125)" xlink:href="#DejaVuSans-937"/>
     <use transform="translate(77.373047 -16.28125)scale(0.7)" xlink:href="#DejaVuSans-Oblique-77"/>
     <use transform="translate(140.50293 0.125)" xlink:href="#DejaVuSans-40"/>
     <use transform="translate(179.516602 0.125)" xlink:href="#DejaVuSans-Oblique-122"/>
     <use transform="translate(232.006836 0.125)" xlink:href="#DejaVuSans-41"/>
    </g>
   </g>
   <g id="text_29">
    <!-- $\Omega_R(z)$ -->
    <defs>
     <path d="M 25.203125 64.796875 
L 20.21875 38.921875 
L 32.90625 38.921875 
Q 40.375 38.921875 44.984375 43.046875 
Q 49.609375 47.171875 49.609375 53.8125 
Q 49.609375 59.125 46.5 61.953125 
Q 43.40625 64.796875 37.59375 64.796875 
z
M 43.3125 35.015625 
Q 46.4375 34.28125 48.515625 31.390625 
Q 50.59375 28.515625 53.328125 19.921875 
L 59.515625 0 
L 49.125 0 
L 43.40625 18.703125 
Q 41.21875 25.921875 38.328125 28.359375 
Q 35.453125 30.8125 29.5 30.8125 
L 18.609375 30.8125 
L 12.59375 0 
L 2.6875 0 
L 16.890625 72.90625 
L 39.109375 72.90625 
Q 49.21875 72.90625 54.609375 68.328125 
Q 60.015625 63.765625 60.015625 55.171875 
Q 60.015625 47.5625 55.421875 41.984375 
Q 50.828125 36.421875 43.3125 35.015625 
z
" id="DejaVuSans-Oblique-82"/>
    </defs>
    <g style="fill:#bfbf00;opacity:0.7;" transform="translate(193.491117 152.002357)scale(0.1 -0.1)">
     <use transform="translate(0 0.125)" xlink:href="#DejaVuSans-937"/>
     <use transform="translate(77.373047 -16.28125)scale(0.7)" xlink:href="#DejaVuSans-Oblique-82"/>
     <use transform="translate(128.745117 0.125)" xlink:href="#DejaVuSans-40"/>
     <use transform="translate(167.758789 0.125)" xlink:href="#DejaVuSans-Oblique-122"/>
     <use transform="translate(220.249023 0.125)" xlink:href="#DejaVuSans-41"/>
    </g>
   </g>
   <g id="text_30">
    <!-- $\Omega_{\Lambda}(z)$ -->
    <defs>
     <path d="M 11.1875 0 
L 0.78125 0 
L 28.609375 72.90625 
L 39.796875 72.90625 
L 67.578125 0 
L 57.328125 0 
L 34.1875 63.1875 
z
" id="DejaVuSans-923"/>
    </defs>
    <g style="fill:#0000ff;opacity:0.7;" transform="translate(106.298182 140.556501)scale(0.1 -0.1)">
     <use transform="translate(0 0.125)" xlink:href="#DejaVuSans-937"/>
     <use transform="translate(77.373047 -16.28125)scale(0.7)" xlink:href="#DejaVuSans-923"/>
     <use transform="translate(127.993164 0.125)" xlink:href="#DejaVuSans-40"/>
     <use transform="translate(167.006836 0.125)" xlink:href="#DejaVuSans-Oblique-122"/>
     <use transform="translate(219.49707 0.125)" xlink:href="#DejaVuSans-41"/>
    </g>
   </g>
  </g>
 </g>
 <defs>
  <clipPath id="pc1e651dc9b">
   <rect height="266.112" width="357.12" x="57.6" y="41.472"/>
  </clipPath>
 </defs>
</svg>
